# xmcd
# Track frame offsets:
# 150
# 15833
# 32882
# 49990
# 67429
# 82279
# 103653
# 116793
# 129151
# 144390
# 159449
# 174192
# 192423
#
# Disc length: 2752 seconds
# Revision: 0
# Processed by: cddbd v1.4PL0 Copyright (c) Steve Scherf et al.
# Submitted via: VisiTrax 2.9.5.181 - For more info visit www.synapsa.com
#
DISCID=b40abe0d
DTITLE=Jim Hendricks - Texas: Songs of Romance and Adventure From the Lonesta
DTITLE=r State
DYEAR=1900
DGENRE=Country
TTITLE0=T For Texas
TTITLE1=Across the Alley from the Alamo
TTITLE2=When The Bloom Is On The Sage (Round-Up Time in Texas)
TTITLE3=Old Chisholm Trail - Buffalo Gals
TTITLE4=Waltz Across Texas
TTITLE5=El Paso
TTITLE6=Deep In the Hear of Texas - Texas Cowboy
TTITLE7=Texas Swinger
TTITLE8=Red River Valley
TTITLE9=San Antonio Rose
TTITLE10=Cielito Lindo
TTITLE11=Streets of Laredo
TTITLE12=The Yellow Rose of Texas
EXTD=
EXTT0=
EXTT1=
EXTT2=
EXTT3=
EXTT4=
EXTT5=
EXTT6=
EXTT7=
EXTT8=
EXTT9=
EXTT10=
EXTT11=
EXTT12=
PLAYORDER=
